<mxfile host="app.diagrams.net" agent="Mozilla/5.0 (Macintosh; Intel Mac OS X 10_15_7) AppleWebKit/537.36 (KHTML, like Gecko) Chrome/134.0.0.0 Safari/537.36" version="26.1.0">
  <diagram name="Page-1" id="NI_ZtwrbzABsDncNLZh5">
    <mxGraphModel dx="2617" dy="679" grid="1" gridSize="10" guides="1" tooltips="1" connect="1" arrows="1" fold="1" page="1" pageScale="1" pageWidth="827" pageHeight="1169" math="0" shadow="0">
      <root>
        <mxCell id="0" />
        <mxCell id="1" parent="0" />
        <mxCell id="Th7sLmlNrDOAgaCZZnoH-1" value="Asset Planning" style="rounded=1;whiteSpace=wrap;html=1;" parent="1" vertex="1">
          <mxGeometry x="354" y="350" width="120" height="60" as="geometry" />
        </mxCell>
        <mxCell id="Th7sLmlNrDOAgaCZZnoH-2" value="ESP (Kafka)" style="shape=cylinder3;whiteSpace=wrap;html=1;boundedLbl=1;backgroundOutline=1;size=15;rotation=0;direction=south;" parent="1" vertex="1">
          <mxGeometry x="334" y="210" width="160" height="40" as="geometry" />
        </mxCell>
        <mxCell id="Th7sLmlNrDOAgaCZZnoH-4" value="Asset Service" style="rounded=1;whiteSpace=wrap;html=1;" parent="1" vertex="1">
          <mxGeometry x="80" y="350" width="120" height="60" as="geometry" />
        </mxCell>
        <mxCell id="Th7sLmlNrDOAgaCZZnoH-5" value="Azure Service Bus" style="shape=cylinder3;whiteSpace=wrap;html=1;boundedLbl=1;backgroundOutline=1;size=15;rotation=0;direction=south;" parent="1" vertex="1">
          <mxGeometry x="190" y="270" width="160" height="40" as="geometry" />
        </mxCell>
        <mxCell id="Th7sLmlNrDOAgaCZZnoH-6" value="" style="endArrow=classic;html=1;rounded=0;entryX=1;entryY=0;entryDx=0;entryDy=112.5;entryPerimeter=0;exitX=0.75;exitY=0;exitDx=0;exitDy=0;" parent="1" source="Th7sLmlNrDOAgaCZZnoH-4" target="Th7sLmlNrDOAgaCZZnoH-5" edge="1">
          <mxGeometry width="50" height="50" relative="1" as="geometry">
            <mxPoint x="380" y="400" as="sourcePoint" />
            <mxPoint x="430" y="350" as="targetPoint" />
          </mxGeometry>
        </mxCell>
        <mxCell id="Th7sLmlNrDOAgaCZZnoH-7" value="" style="endArrow=classic;html=1;rounded=0;exitX=1;exitY=0;exitDx=0;exitDy=47.5;exitPerimeter=0;entryX=0.25;entryY=0;entryDx=0;entryDy=0;" parent="1" source="Th7sLmlNrDOAgaCZZnoH-5" target="Th7sLmlNrDOAgaCZZnoH-1" edge="1">
          <mxGeometry width="50" height="50" relative="1" as="geometry">
            <mxPoint x="380" y="400" as="sourcePoint" />
            <mxPoint x="430" y="350" as="targetPoint" />
          </mxGeometry>
        </mxCell>
        <mxCell id="Th7sLmlNrDOAgaCZZnoH-15" value="SB Event" style="edgeLabel;html=1;align=center;verticalAlign=middle;resizable=0;points=[];" parent="Th7sLmlNrDOAgaCZZnoH-7" vertex="1" connectable="0">
          <mxGeometry x="-0.2391" y="-1" relative="1" as="geometry">
            <mxPoint as="offset" />
          </mxGeometry>
        </mxCell>
        <mxCell id="Th7sLmlNrDOAgaCZZnoH-8" value="" style="endArrow=classic;html=1;rounded=0;exitX=1;exitY=0.5;exitDx=0;exitDy=0;exitPerimeter=0;entryX=0.5;entryY=0;entryDx=0;entryDy=0;" parent="1" source="Th7sLmlNrDOAgaCZZnoH-2" target="Th7sLmlNrDOAgaCZZnoH-1" edge="1">
          <mxGeometry width="50" height="50" relative="1" as="geometry">
            <mxPoint x="380" y="400" as="sourcePoint" />
            <mxPoint x="580" y="320" as="targetPoint" />
          </mxGeometry>
        </mxCell>
        <mxCell id="Th7sLmlNrDOAgaCZZnoH-16" value="ESP Event" style="edgeLabel;html=1;align=center;verticalAlign=middle;resizable=0;points=[];" parent="Th7sLmlNrDOAgaCZZnoH-8" vertex="1" connectable="0">
          <mxGeometry x="-0.03" relative="1" as="geometry">
            <mxPoint as="offset" />
          </mxGeometry>
        </mxCell>
        <mxCell id="Th7sLmlNrDOAgaCZZnoH-9" value="Dispatcher" style="rounded=1;whiteSpace=wrap;html=1;" parent="1" vertex="1">
          <mxGeometry x="354" y="480" width="120" height="60" as="geometry" />
        </mxCell>
        <mxCell id="Th7sLmlNrDOAgaCZZnoH-10" value="Front End" style="rounded=1;whiteSpace=wrap;html=1;" parent="1" vertex="1">
          <mxGeometry x="580" y="350" width="120" height="60" as="geometry" />
        </mxCell>
        <mxCell id="Th7sLmlNrDOAgaCZZnoH-11" value="" style="endArrow=classic;startArrow=classic;html=1;rounded=0;entryX=0;entryY=0.5;entryDx=0;entryDy=0;" parent="1" target="Th7sLmlNrDOAgaCZZnoH-10" edge="1">
          <mxGeometry width="50" height="50" relative="1" as="geometry">
            <mxPoint x="480" y="380" as="sourcePoint" />
            <mxPoint x="430" y="350" as="targetPoint" />
          </mxGeometry>
        </mxCell>
        <mxCell id="Th7sLmlNrDOAgaCZZnoH-13" value="HTTP" style="edgeLabel;html=1;align=center;verticalAlign=middle;resizable=0;points=[];" parent="Th7sLmlNrDOAgaCZZnoH-11" vertex="1" connectable="0">
          <mxGeometry x="0.01" y="3" relative="1" as="geometry">
            <mxPoint as="offset" />
          </mxGeometry>
        </mxCell>
        <mxCell id="Th7sLmlNrDOAgaCZZnoH-12" value="" style="endArrow=classic;startArrow=classic;html=1;rounded=0;exitX=0.5;exitY=0;exitDx=0;exitDy=0;entryX=0.5;entryY=1;entryDx=0;entryDy=0;" parent="1" source="Th7sLmlNrDOAgaCZZnoH-9" target="Th7sLmlNrDOAgaCZZnoH-1" edge="1">
          <mxGeometry width="50" height="50" relative="1" as="geometry">
            <mxPoint x="380" y="400" as="sourcePoint" />
            <mxPoint x="430" y="350" as="targetPoint" />
          </mxGeometry>
        </mxCell>
        <mxCell id="Th7sLmlNrDOAgaCZZnoH-14" value="gRPC" style="edgeLabel;html=1;align=center;verticalAlign=middle;resizable=0;points=[];" parent="Th7sLmlNrDOAgaCZZnoH-12" vertex="1" connectable="0">
          <mxGeometry x="-0.0762" y="-1" relative="1" as="geometry">
            <mxPoint as="offset" />
          </mxGeometry>
        </mxCell>
        <mxCell id="Th7sLmlNrDOAgaCZZnoH-19" value="" style="rounded=0;whiteSpace=wrap;html=1;" parent="1" vertex="1">
          <mxGeometry x="170" y="590" width="440" height="330" as="geometry" />
        </mxCell>
        <mxCell id="Th7sLmlNrDOAgaCZZnoH-20" value="Asset Planning" style="text;html=1;align=center;verticalAlign=middle;whiteSpace=wrap;rounded=0;" parent="1" vertex="1">
          <mxGeometry x="360" y="550" width="60" height="30" as="geometry" />
        </mxCell>
        <mxCell id="Th7sLmlNrDOAgaCZZnoH-21" value="Asset Planning App&lt;div&gt;Instance&lt;/div&gt;" style="rounded=1;whiteSpace=wrap;html=1;" parent="1" vertex="1">
          <mxGeometry x="290" y="600" width="120" height="60" as="geometry" />
        </mxCell>
        <mxCell id="Th7sLmlNrDOAgaCZZnoH-22" value="Asset Planning App&lt;div&gt;Instance&lt;/div&gt;" style="rounded=1;whiteSpace=wrap;html=1;" parent="1" vertex="1">
          <mxGeometry x="330" y="620" width="120" height="60" as="geometry" />
        </mxCell>
        <mxCell id="Th7sLmlNrDOAgaCZZnoH-23" value="Asset Planning App&lt;div&gt;Instance&lt;/div&gt;" style="rounded=1;whiteSpace=wrap;html=1;" parent="1" vertex="1">
          <mxGeometry x="360" y="640" width="120" height="60" as="geometry" />
        </mxCell>
        <mxCell id="Th7sLmlNrDOAgaCZZnoH-25" value="Asset Planning Db" style="shape=cylinder3;whiteSpace=wrap;html=1;boundedLbl=1;backgroundOutline=1;size=15;" parent="1" vertex="1">
          <mxGeometry x="360" y="770" width="60" height="80" as="geometry" />
        </mxCell>
        <mxCell id="Th7sLmlNrDOAgaCZZnoH-29" value="" style="endArrow=classic;html=1;rounded=0;entryX=0.5;entryY=0;entryDx=0;entryDy=0;entryPerimeter=0;exitX=0.25;exitY=1;exitDx=0;exitDy=0;" parent="1" source="Th7sLmlNrDOAgaCZZnoH-23" target="Th7sLmlNrDOAgaCZZnoH-25" edge="1">
          <mxGeometry width="50" height="50" relative="1" as="geometry">
            <mxPoint x="380" y="780" as="sourcePoint" />
            <mxPoint x="390" y="650" as="targetPoint" />
          </mxGeometry>
        </mxCell>
        <mxCell id="Th7sLmlNrDOAgaCZZnoH-30" value="" style="rounded=0;whiteSpace=wrap;html=1;" parent="1" vertex="1">
          <mxGeometry x="180" y="1000" width="440" height="330" as="geometry" />
        </mxCell>
        <mxCell id="Th7sLmlNrDOAgaCZZnoH-31" value="Asset Planning" style="text;html=1;align=center;verticalAlign=middle;whiteSpace=wrap;rounded=0;" parent="1" vertex="1">
          <mxGeometry x="370" y="960" width="60" height="30" as="geometry" />
        </mxCell>
        <mxCell id="Th7sLmlNrDOAgaCZZnoH-32" value="Asset Planning App&lt;div&gt;Instance&lt;/div&gt;" style="rounded=1;whiteSpace=wrap;html=1;" parent="1" vertex="1">
          <mxGeometry x="300" y="1010" width="120" height="60" as="geometry" />
        </mxCell>
        <mxCell id="Th7sLmlNrDOAgaCZZnoH-33" value="Asset Planning App&lt;div&gt;Instance&lt;/div&gt;" style="rounded=1;whiteSpace=wrap;html=1;" parent="1" vertex="1">
          <mxGeometry x="340" y="1030" width="120" height="60" as="geometry" />
        </mxCell>
        <mxCell id="Th7sLmlNrDOAgaCZZnoH-34" value="Asset Planning App&lt;div&gt;Instance&lt;/div&gt;" style="rounded=1;whiteSpace=wrap;html=1;" parent="1" vertex="1">
          <mxGeometry x="370" y="1050" width="120" height="60" as="geometry" />
        </mxCell>
        <mxCell id="Th7sLmlNrDOAgaCZZnoH-35" value="Tenant1" style="shape=cylinder3;whiteSpace=wrap;html=1;boundedLbl=1;backgroundOutline=1;size=15;" parent="1" vertex="1">
          <mxGeometry x="220" y="1220" width="60" height="80" as="geometry" />
        </mxCell>
        <mxCell id="Th7sLmlNrDOAgaCZZnoH-36" value="" style="endArrow=classic;html=1;rounded=0;entryX=0.5;entryY=0;entryDx=0;entryDy=0;entryPerimeter=0;exitX=0.25;exitY=1;exitDx=0;exitDy=0;" parent="1" source="Th7sLmlNrDOAgaCZZnoH-34" target="Th7sLmlNrDOAgaCZZnoH-35" edge="1">
          <mxGeometry width="50" height="50" relative="1" as="geometry">
            <mxPoint x="390" y="1190" as="sourcePoint" />
            <mxPoint x="400" y="1060" as="targetPoint" />
          </mxGeometry>
        </mxCell>
        <mxCell id="Th7sLmlNrDOAgaCZZnoH-37" value="Tenant2" style="shape=cylinder3;whiteSpace=wrap;html=1;boundedLbl=1;backgroundOutline=1;size=15;" parent="1" vertex="1">
          <mxGeometry x="300" y="1220" width="60" height="80" as="geometry" />
        </mxCell>
        <mxCell id="Th7sLmlNrDOAgaCZZnoH-38" value="Tenant3" style="shape=cylinder3;whiteSpace=wrap;html=1;boundedLbl=1;backgroundOutline=1;size=15;" parent="1" vertex="1">
          <mxGeometry x="380" y="1220" width="60" height="80" as="geometry" />
        </mxCell>
        <mxCell id="Th7sLmlNrDOAgaCZZnoH-39" value="" style="endArrow=classic;html=1;rounded=0;entryX=0.5;entryY=0;entryDx=0;entryDy=0;entryPerimeter=0;exitX=0.5;exitY=1;exitDx=0;exitDy=0;" parent="1" source="Th7sLmlNrDOAgaCZZnoH-34" target="Th7sLmlNrDOAgaCZZnoH-37" edge="1">
          <mxGeometry width="50" height="50" relative="1" as="geometry">
            <mxPoint x="410" y="1120" as="sourcePoint" />
            <mxPoint x="330" y="1230" as="targetPoint" />
          </mxGeometry>
        </mxCell>
        <mxCell id="Th7sLmlNrDOAgaCZZnoH-40" value="" style="endArrow=classic;html=1;rounded=0;entryX=0.5;entryY=0;entryDx=0;entryDy=0;entryPerimeter=0;exitX=0.75;exitY=1;exitDx=0;exitDy=0;" parent="1" source="Th7sLmlNrDOAgaCZZnoH-34" target="Th7sLmlNrDOAgaCZZnoH-38" edge="1">
          <mxGeometry width="50" height="50" relative="1" as="geometry">
            <mxPoint x="440" y="1120" as="sourcePoint" />
            <mxPoint x="410" y="1230" as="targetPoint" />
          </mxGeometry>
        </mxCell>
        <mxCell id="Th7sLmlNrDOAgaCZZnoH-41" value="ESP" style="rounded=1;whiteSpace=wrap;html=1;" parent="1" vertex="1">
          <mxGeometry x="20" y="1010" width="50" height="40" as="geometry" />
        </mxCell>
        <mxCell id="Th7sLmlNrDOAgaCZZnoH-42" style="edgeStyle=orthogonalEdgeStyle;rounded=0;orthogonalLoop=1;jettySize=auto;html=1;entryX=0.005;entryY=0.092;entryDx=0;entryDy=0;entryPerimeter=0;" parent="1" source="Th7sLmlNrDOAgaCZZnoH-41" target="Th7sLmlNrDOAgaCZZnoH-30" edge="1">
          <mxGeometry relative="1" as="geometry" />
        </mxCell>
        <mxCell id="Th7sLmlNrDOAgaCZZnoH-43" value="Asset&lt;div&gt;External&lt;/div&gt;&lt;div&gt;Identifier&lt;/div&gt;" style="edgeLabel;html=1;align=center;verticalAlign=middle;resizable=0;points=[];" parent="Th7sLmlNrDOAgaCZZnoH-42" vertex="1" connectable="0">
          <mxGeometry x="-0.291" y="-2" relative="1" as="geometry">
            <mxPoint x="-1" as="offset" />
          </mxGeometry>
        </mxCell>
        <mxCell id="Th7sLmlNrDOAgaCZZnoH-44" value="SB" style="rounded=1;whiteSpace=wrap;html=1;" parent="1" vertex="1">
          <mxGeometry x="20" y="1080" width="50" height="40" as="geometry" />
        </mxCell>
        <mxCell id="Th7sLmlNrDOAgaCZZnoH-45" style="edgeStyle=orthogonalEdgeStyle;rounded=0;orthogonalLoop=1;jettySize=auto;html=1;entryX=0.005;entryY=0.092;entryDx=0;entryDy=0;entryPerimeter=0;" parent="1" source="Th7sLmlNrDOAgaCZZnoH-44" edge="1">
          <mxGeometry relative="1" as="geometry">
            <mxPoint x="182" y="1100" as="targetPoint" />
          </mxGeometry>
        </mxCell>
        <mxCell id="Th7sLmlNrDOAgaCZZnoH-46" value="Asset&lt;div&gt;Internal VPP&lt;/div&gt;&lt;div&gt;Identifier&lt;/div&gt;&lt;div&gt;+&lt;/div&gt;&lt;div&gt;&lt;b&gt;TenantId&lt;/b&gt;&lt;/div&gt;" style="edgeLabel;html=1;align=center;verticalAlign=middle;resizable=0;points=[];" parent="Th7sLmlNrDOAgaCZZnoH-45" vertex="1" connectable="0">
          <mxGeometry x="-0.291" y="-2" relative="1" as="geometry">
            <mxPoint x="-1" as="offset" />
          </mxGeometry>
        </mxCell>
        <mxCell id="Th7sLmlNrDOAgaCZZnoH-47" value="FE" style="rounded=1;whiteSpace=wrap;html=1;" parent="1" vertex="1">
          <mxGeometry x="18" y="1160" width="50" height="40" as="geometry" />
        </mxCell>
        <mxCell id="Th7sLmlNrDOAgaCZZnoH-48" style="edgeStyle=orthogonalEdgeStyle;rounded=0;orthogonalLoop=1;jettySize=auto;html=1;entryX=0.005;entryY=0.092;entryDx=0;entryDy=0;entryPerimeter=0;" parent="1" source="Th7sLmlNrDOAgaCZZnoH-47" edge="1">
          <mxGeometry relative="1" as="geometry">
            <mxPoint x="180" y="1180" as="targetPoint" />
          </mxGeometry>
        </mxCell>
        <mxCell id="Th7sLmlNrDOAgaCZZnoH-49" value="Asset&lt;div&gt;Internal VPP&lt;/div&gt;&lt;div&gt;Identifier&lt;/div&gt;&lt;div&gt;+&lt;/div&gt;&lt;div&gt;&lt;b&gt;TenantId&lt;/b&gt;&lt;/div&gt;" style="edgeLabel;html=1;align=center;verticalAlign=middle;resizable=0;points=[];" parent="Th7sLmlNrDOAgaCZZnoH-48" vertex="1" connectable="0">
          <mxGeometry x="-0.291" y="-2" relative="1" as="geometry">
            <mxPoint x="-1" as="offset" />
          </mxGeometry>
        </mxCell>
        <mxCell id="Th7sLmlNrDOAgaCZZnoH-50" value="Disp" style="rounded=1;whiteSpace=wrap;html=1;" parent="1" vertex="1">
          <mxGeometry x="20" y="1240" width="50" height="40" as="geometry" />
        </mxCell>
        <mxCell id="Th7sLmlNrDOAgaCZZnoH-51" style="edgeStyle=orthogonalEdgeStyle;rounded=0;orthogonalLoop=1;jettySize=auto;html=1;entryX=0.005;entryY=0.092;entryDx=0;entryDy=0;entryPerimeter=0;" parent="1" source="Th7sLmlNrDOAgaCZZnoH-50" edge="1">
          <mxGeometry relative="1" as="geometry">
            <mxPoint x="182" y="1260" as="targetPoint" />
          </mxGeometry>
        </mxCell>
        <mxCell id="Th7sLmlNrDOAgaCZZnoH-52" value="Asset&lt;div&gt;Internal VPP&lt;/div&gt;&lt;div&gt;Identifier&lt;/div&gt;&lt;div&gt;+&lt;/div&gt;&lt;div&gt;&lt;b&gt;TenantId&lt;/b&gt;&lt;/div&gt;" style="edgeLabel;html=1;align=center;verticalAlign=middle;resizable=0;points=[];" parent="Th7sLmlNrDOAgaCZZnoH-51" vertex="1" connectable="0">
          <mxGeometry x="-0.291" y="-2" relative="1" as="geometry">
            <mxPoint x="-1" as="offset" />
          </mxGeometry>
        </mxCell>
        <mxCell id="Th7sLmlNrDOAgaCZZnoH-53" value="Asset&lt;div&gt;Tenant&lt;/div&gt;&lt;div&gt;Mapping&lt;/div&gt;" style="shape=cylinder3;whiteSpace=wrap;html=1;boundedLbl=1;backgroundOutline=1;size=15;" parent="1" vertex="1">
          <mxGeometry x="520" y="1220" width="60" height="80" as="geometry" />
        </mxCell>
        <mxCell id="Th7sLmlNrDOAgaCZZnoH-54" value="" style="endArrow=classic;html=1;rounded=0;entryX=0.5;entryY=0;entryDx=0;entryDy=0;entryPerimeter=0;exitX=0.861;exitY=0.996;exitDx=0;exitDy=0;exitPerimeter=0;" parent="1" source="Th7sLmlNrDOAgaCZZnoH-34" target="Th7sLmlNrDOAgaCZZnoH-53" edge="1">
          <mxGeometry width="50" height="50" relative="1" as="geometry">
            <mxPoint x="470" y="1120" as="sourcePoint" />
            <mxPoint x="420" y="1230" as="targetPoint" />
          </mxGeometry>
        </mxCell>
        <mxCell id="Th7sLmlNrDOAgaCZZnoH-55" value="ExternalId&lt;div&gt;to&lt;/div&gt;&lt;div&gt;TenantId&lt;/div&gt;" style="edgeLabel;html=1;align=center;verticalAlign=middle;resizable=0;points=[];" parent="Th7sLmlNrDOAgaCZZnoH-54" vertex="1" connectable="0">
          <mxGeometry x="-0.1002" y="-3" relative="1" as="geometry">
            <mxPoint y="-1" as="offset" />
          </mxGeometry>
        </mxCell>
        <mxCell id="_jitEg9sO4ruPmXNMxNk-1" value="" style="rounded=0;whiteSpace=wrap;html=1;" vertex="1" parent="1">
          <mxGeometry x="-90" y="1490" width="751" height="470" as="geometry" />
        </mxCell>
        <mxCell id="_jitEg9sO4ruPmXNMxNk-28" value="Asset Planning" style="rounded=1;whiteSpace=wrap;html=1;" vertex="1" parent="1">
          <mxGeometry x="247" y="1720" width="120" height="60" as="geometry" />
        </mxCell>
        <mxCell id="_jitEg9sO4ruPmXNMxNk-29" value="ESP (Kafka)" style="shape=cylinder3;whiteSpace=wrap;html=1;boundedLbl=1;backgroundOutline=1;size=15;rotation=0;direction=south;" vertex="1" parent="1">
          <mxGeometry x="227" y="1550" width="160" height="40" as="geometry" />
        </mxCell>
        <mxCell id="_jitEg9sO4ruPmXNMxNk-30" value="Asset Service" style="rounded=1;whiteSpace=wrap;html=1;" vertex="1" parent="1">
          <mxGeometry x="-30" y="1720" width="120" height="60" as="geometry" />
        </mxCell>
        <mxCell id="_jitEg9sO4ruPmXNMxNk-31" value="Azure Service Bus" style="shape=cylinder3;whiteSpace=wrap;html=1;boundedLbl=1;backgroundOutline=1;size=15;rotation=0;direction=south;" vertex="1" parent="1">
          <mxGeometry x="80" y="1600" width="160" height="40" as="geometry" />
        </mxCell>
        <mxCell id="_jitEg9sO4ruPmXNMxNk-32" value="" style="endArrow=classic;html=1;rounded=0;entryX=1;entryY=0;entryDx=0;entryDy=112.5;entryPerimeter=0;exitX=0.75;exitY=0;exitDx=0;exitDy=0;" edge="1" parent="1" source="_jitEg9sO4ruPmXNMxNk-30" target="_jitEg9sO4ruPmXNMxNk-31">
          <mxGeometry width="50" height="50" relative="1" as="geometry">
            <mxPoint x="270" y="1740" as="sourcePoint" />
            <mxPoint x="320" y="1690" as="targetPoint" />
          </mxGeometry>
        </mxCell>
        <mxCell id="_jitEg9sO4ruPmXNMxNk-33" value="" style="endArrow=classic;html=1;rounded=0;exitX=1;exitY=0;exitDx=0;exitDy=47.5;exitPerimeter=0;entryX=0.25;entryY=0;entryDx=0;entryDy=0;" edge="1" parent="1" source="_jitEg9sO4ruPmXNMxNk-31" target="_jitEg9sO4ruPmXNMxNk-28">
          <mxGeometry width="50" height="50" relative="1" as="geometry">
            <mxPoint x="270" y="1740" as="sourcePoint" />
            <mxPoint x="320" y="1690" as="targetPoint" />
          </mxGeometry>
        </mxCell>
        <mxCell id="_jitEg9sO4ruPmXNMxNk-34" value="&lt;b&gt;MassTransit&lt;/b&gt;&lt;div&gt;&lt;b&gt;ConsumeFilter&lt;/b&gt;&lt;/div&gt;" style="edgeLabel;html=1;align=center;verticalAlign=middle;resizable=0;points=[];" vertex="1" connectable="0" parent="_jitEg9sO4ruPmXNMxNk-33">
          <mxGeometry x="-0.2391" y="-1" relative="1" as="geometry">
            <mxPoint x="-4" y="9" as="offset" />
          </mxGeometry>
        </mxCell>
        <mxCell id="_jitEg9sO4ruPmXNMxNk-35" value="" style="endArrow=classic;html=1;rounded=0;exitX=1;exitY=0.5;exitDx=0;exitDy=0;exitPerimeter=0;entryX=0.5;entryY=0;entryDx=0;entryDy=0;" edge="1" parent="1" source="_jitEg9sO4ruPmXNMxNk-29" target="_jitEg9sO4ruPmXNMxNk-28">
          <mxGeometry width="50" height="50" relative="1" as="geometry">
            <mxPoint x="270" y="1740" as="sourcePoint" />
            <mxPoint x="470" y="1660" as="targetPoint" />
          </mxGeometry>
        </mxCell>
        <mxCell id="_jitEg9sO4ruPmXNMxNk-36" value="&lt;b&gt;MediatoR&lt;/b&gt;&lt;div&gt;&lt;b&gt;Behaviour&lt;/b&gt;&lt;/div&gt;" style="edgeLabel;html=1;align=center;verticalAlign=middle;resizable=0;points=[];" vertex="1" connectable="0" parent="_jitEg9sO4ruPmXNMxNk-35">
          <mxGeometry x="-0.03" relative="1" as="geometry">
            <mxPoint as="offset" />
          </mxGeometry>
        </mxCell>
        <mxCell id="_jitEg9sO4ruPmXNMxNk-37" value="Dispatcher" style="rounded=1;whiteSpace=wrap;html=1;" vertex="1" parent="1">
          <mxGeometry x="247" y="1850" width="120" height="60" as="geometry" />
        </mxCell>
        <mxCell id="_jitEg9sO4ruPmXNMxNk-38" value="Front End" style="rounded=1;whiteSpace=wrap;html=1;" vertex="1" parent="1">
          <mxGeometry x="500" y="1720" width="120" height="60" as="geometry" />
        </mxCell>
        <mxCell id="_jitEg9sO4ruPmXNMxNk-39" value="" style="endArrow=classic;startArrow=classic;html=1;rounded=0;entryX=0;entryY=0.5;entryDx=0;entryDy=0;" edge="1" parent="1" target="_jitEg9sO4ruPmXNMxNk-38">
          <mxGeometry width="50" height="50" relative="1" as="geometry">
            <mxPoint x="373" y="1750" as="sourcePoint" />
            <mxPoint x="323" y="1720" as="targetPoint" />
          </mxGeometry>
        </mxCell>
        <mxCell id="_jitEg9sO4ruPmXNMxNk-40" value="&lt;b&gt;ASP.NET&lt;/b&gt;&lt;div&gt;&lt;b&gt;Core&lt;/b&gt;&lt;div&gt;&lt;b&gt;Middleware&lt;/b&gt;&lt;/div&gt;&lt;/div&gt;" style="edgeLabel;html=1;align=center;verticalAlign=middle;resizable=0;points=[];" vertex="1" connectable="0" parent="_jitEg9sO4ruPmXNMxNk-39">
          <mxGeometry x="0.01" y="3" relative="1" as="geometry">
            <mxPoint as="offset" />
          </mxGeometry>
        </mxCell>
        <mxCell id="_jitEg9sO4ruPmXNMxNk-41" value="" style="endArrow=classic;startArrow=classic;html=1;rounded=0;exitX=0.5;exitY=0;exitDx=0;exitDy=0;entryX=0.5;entryY=1;entryDx=0;entryDy=0;" edge="1" parent="1" source="_jitEg9sO4ruPmXNMxNk-37" target="_jitEg9sO4ruPmXNMxNk-28">
          <mxGeometry width="50" height="50" relative="1" as="geometry">
            <mxPoint x="273" y="1770" as="sourcePoint" />
            <mxPoint x="323" y="1720" as="targetPoint" />
          </mxGeometry>
        </mxCell>
        <mxCell id="_jitEg9sO4ruPmXNMxNk-42" value="&lt;b&gt;gRPC&lt;/b&gt;&lt;div&gt;&lt;b&gt;Interceptor&lt;/b&gt;&lt;/div&gt;" style="edgeLabel;html=1;align=center;verticalAlign=middle;resizable=0;points=[];" vertex="1" connectable="0" parent="_jitEg9sO4ruPmXNMxNk-41">
          <mxGeometry x="-0.0762" y="-1" relative="1" as="geometry">
            <mxPoint as="offset" />
          </mxGeometry>
        </mxCell>
      </root>
    </mxGraphModel>
  </diagram>
</mxfile>
